<?xml version="1.0"?>
<svg xmlns="http://www.w3.org/2000/svg" id="Layer_1" enable-background="new 0 0 512 512" height="512px" viewBox="0 0 512 512" width="512px"><g><path d="m74 512c-40.804 0-74-33.196-74-74v-190c0-40.804 33.196-74 74-74s74 33.196 74 74v190c0 40.804-33.196 74-74 74zm0-298c-18.748 0-34 15.252-34 34v190c0 18.748 15.252 34 34 34s34-15.252 34-34v-190c0-18.747-15.252-34-34-34zm182 298c-40.804 0-74-33.196-74-74v-82c0-40.804 33.196-74 74-74s74 33.196 74 74v82c0 40.804-33.196 74-74 74zm0-190c-18.748 0-34 15.252-34 34v82c0 18.748 15.252 34 34 34s34-15.252 34-34v-82c0-18.747-15.252-34-34-34zm182 190c-40.804 0-74-33.196-74-74v-175c0-40.804 33.196-74 74-74s74 33.196 74 74v175c0 40.804-33.196 74-74 74zm0-283c-18.748 0-34 15.252-34 34v175c0 18.748 15.252 34 34 34s34-15.252 34-34v-175c0-18.747-15.252-34-34-34zm-111.195-7.95 110.681-116.26c7.616-8 7.305-20.66-.695-28.276-8-7.617-20.659-7.305-28.275.695l-110.861 116.448c-.129.135-.256.272-.381.411-10.425 11.585-28.074 13.213-40.437 3.827l-126.979-115.351c-.338-.306-.685-.601-1.042-.884-26.841-21.226-64.788-20.024-90.231 2.858-.235.212-.466.429-.69.651l-31.959 31.612c-7.854 7.768-7.923 20.431-.154 28.284 7.766 7.852 20.429 7.922 28.283.154l31.578-31.235c10.752-9.409 26.525-9.947 37.888-1.315l126.981 115.352c.337.306.685.601 1.042.883 12.777 10.105 28.104 15.047 43.359 15.046 19.14-.001 38.166-7.781 51.892-22.9zm185.195-107.05v-54c0-33.084-26.916-60-60-60h-54c-11.046 0-20 8.954-20 20s8.954 20 20 20h54c11.028 0 20 8.972 20 20v54c0 11.046 8.954 20 20 20s20-8.954 20-20z" data-original="#000000" class="active-path" data-old_color="#000000" fill="#FFFFFF"/></g> </svg>
