<svg class="illustration" width="1152" height="700" viewBox="0 0 1152 700" fill="none" xmlns="http://www.w3.org/2000/svg">
<path fill-rule="evenodd" clip-rule="evenodd" d="M712.911 440.882C736 439.888 753.911 432.709 753.911 424C753.911 414.611 733.093 407 707.411 407C681.73 407 660.911 414.611 660.911 424C660.911 432.834 679.342 440.094 702.911 440.921V543C688.578 542.5 658.411 542.7 652.411 547.5C644.911 553.5 742.411 553 746.911 551.5C750.511 550.3 725.745 545.333 712.911 543V440.882Z" fill="#DADADA"/>
<path fill-rule="evenodd" clip-rule="evenodd" d="M582.85 209H480.98C471.05 209 463 217.05 463 226.98C463 236.91 471.05 244.96 480.98 244.96H582.85C592.78 244.96 600.83 236.91 600.83 226.98C600.83 217.05 592.78 209 582.85 209ZM480.98 280H582.85C592.78 280 600.83 288.05 600.83 297.98C600.83 307.91 592.78 315.96 582.85 315.96H480.98C471.05 315.96 463 307.91 463 297.98C463 288.05 471.05 280 480.98 280ZM582.85 351H480.98C471.05 351 463 359.05 463 368.98C463 378.91 471.05 386.96 480.98 386.96H582.85C592.78 386.96 600.83 378.91 600.83 368.98C600.83 359.05 592.78 351 582.85 351Z" fill="
#ffffff
"/>
<path d="M583 240C590.18 240 596 234.18 596 227C596 219.82 590.18 214 583 214C575.82 214 570 219.82 570 227C570 234.18 575.82 240 583 240Z" fill="#EE7E79"/>
<path d="M480.83 311C473.65 311 467.83 305.18 467.83 298C467.83 290.82 473.65 285 480.83 285C488.01 285 493.83 290.82 493.83 298C493.83 305.18 488.01 311 480.83 311Z" fill="#FFEEC7"/>
<path d="M480.83 382C473.65 382 467.83 376.18 467.83 369C467.83 361.82 473.65 356 480.83 356C488.01 356 493.83 361.82 493.83 369C493.83 376.18 488.01 382 480.83 382Z" fill="#FFEEC7"/>
<path fill-rule="evenodd" clip-rule="evenodd" d="M665.008 304.007C677.008 308.007 681.674 302.341 682.508 299.007C713.008 295.508 723.508 374.507 720.008 384.507C719.661 385.499 719.043 386.284 718.2 386.887C717.69 393.073 714.619 402.796 705.008 413.008C697.737 420.733 690.157 431.968 683.955 443.008L700.008 458.508C700.808 470.108 693.674 474.674 690.008 475.508C683.682 472.478 677.956 469.544 672.772 466.699C671.496 470.276 670.699 473.305 670.508 475.508C669.708 484.708 664.841 513.341 662.508 526.508C660.341 529.008 653.208 532.908 642.008 528.508C642.938 509.686 645.371 477.569 649.376 451.889C627.18 435.178 624.008 421.733 624.008 409.508C624.008 395.508 643.674 378.008 653.508 371.008L654.008 371.051C654.008 371.037 654.008 371.022 654.008 371.007C654.008 369.937 648.596 369.875 642.094 369.8C633.416 369.701 622.794 369.58 620.508 367.007C616.508 362.507 623.508 353.007 626.008 351.507C627.035 350.891 632.881 351.373 639.409 351.911C648.758 352.682 659.508 353.568 659.508 351.507C659.508 348.707 663.174 333.341 665.008 326.007C606.508 325.007 582.508 251.507 583.008 246.507C583.408 242.507 593.841 244.841 599.008 246.507C617.897 290.874 642.96 297.806 658.941 302.226C661.15 302.837 663.186 303.4 665.008 304.007ZM708.508 461.007C712.841 460.173 721.508 459.007 721.508 461.007C721.508 463.507 721.508 509.007 715.008 505.007C709.412 501.564 707.152 485.154 706.312 479.057C706.176 478.071 706.077 477.355 706.008 477.007C705.753 475.733 706.406 474.071 707.109 472.283C707.785 470.562 708.508 468.724 708.508 467.007C708.508 465.597 708.751 464.511 708.944 463.652C709.229 462.379 709.403 461.604 708.508 461.007ZM659.508 532.007C661.174 533.34 664.208 536.907 663.008 540.507C661.508 545.007 641.508 562.507 628.508 562.007C625.874 562.007 627.818 559.926 630.612 556.935C633.124 554.246 636.324 550.82 637.508 547.507C638.346 545.159 638.96 542.98 639.499 541.064C640.568 537.267 641.346 534.504 643.008 533.507C643.849 533.002 645.312 533.459 647.113 534.022C650.664 535.132 655.526 536.652 659.508 532.007Z" fill="
#22a6b3"/>
<path d="M705.008 413.008C717.808 399.408 719.008 386.674 718.008 382.008L682.508 373.508L653.508 371.008C643.674 378.008 624.008 395.508 624.008 409.508C624.008 421.733 627.18 435.178 649.376 451.889C645.371 477.569 642.938 509.686 642.008 528.508C653.208 532.908 660.341 529.008 662.508 526.508C664.841 513.341 669.708 484.708 670.508 475.508C670.699 473.305 671.496 470.276 672.772 466.699C677.956 469.544 683.682 472.478 690.008 475.508C693.674 474.674 700.808 470.108 700.008 458.508L683.955 443.008C690.157 431.968 697.737 420.733 705.008 413.008Z" fill="black" fill-opacity="0.37"/>
<path d="M667.508 306.007C675.908 314.807 681.008 305.674 682.508 300.007C682.174 298.174 681.508 294.107 681.508 292.507C681.508 290.507 672.508 287.007 677.008 285.007C681.508 283.007 682.508 278.007 679.508 278.507C676.508 279.007 675.508 277.007 677.008 273.507C678.508 270.007 669.008 261.007 666.508 261.007C664.008 261.007 664.008 265.007 662.008 267.507C660.008 270.007 655.508 272.007 654.008 272.507C652.808 272.907 654.841 275.007 656.008 276.007C653.341 277.84 650.208 282.707 659.008 287.507C667.808 292.307 668.341 301.84 667.508 306.007Z" fill="#EDC7C5"/>
<path d="M585.008 246.507C585.408 250.107 593.841 249.007 598.008 248.007C598.341 247.174 599.908 244.907 603.508 242.507C608.008 239.507 609.508 229.007 608.508 227.507C607.508 226.007 605.508 227.507 602.508 236.507C599.508 245.507 597.008 238.007 598.008 234.507C599.008 231.007 595.508 229.007 595.008 232.007C594.508 235.007 584.508 242.007 585.008 246.507Z" fill="#EDC7C5"/>
<path d="M622.008 362.007C622.008 360.807 625.341 356.84 627.008 355.007C626.508 351.007 619.008 348.007 618.008 349.507C617.008 351.007 618.008 353.507 615.508 353.507C613.008 353.507 607.008 349.507 607.508 353.507C608.008 357.507 622.008 363.507 622.008 362.007Z" fill="#EDC7C5"/>
<path d="M660.508 536.007C659.308 534.407 658.341 527.673 658.008 524.507C654.674 522.507 648.208 520.207 649.008 527.007C650.008 535.507 645.508 533.007 645.508 539.007C645.508 545.007 662.008 538.007 660.508 536.007Z" fill="#EDC7C5"/>
<path d="M700.508 461.507C705.308 464.707 709.841 463.507 711.508 462.507C714.508 463.507 710.008 478.007 710.008 476.507C710.008 475.007 703.508 473.007 697.008 473.007C690.508 473.007 694.508 457.507 700.508 461.507Z" fill="#EDC7C5"/>
<path d="M675.508 289.507C675.908 292.307 682.008 292.007 685.008 291.507C694.508 288.007 697.008 278.507 697.508 273.007C698.008 267.507 694.508 270.007 694.508 272.007C694.508 274.007 691.008 269.007 690.008 264.007C689.008 259.007 683.008 254.507 679.508 254.507C676.008 254.507 675.008 251.007 671.508 248.007C668.008 245.007 667.508 245.507 666.508 249.007C665.508 252.507 665.008 247.007 661.508 247.007C658.008 247.007 658.008 251.507 659.008 257.007C660.008 262.507 671.008 265.007 673.508 268.507C676.008 272.007 675.008 278.507 675.008 280.007C675.008 281.507 680.008 278.007 680.508 280.507C681.008 283.007 675.008 286.007 675.508 289.507Z" fill="#4B5361"/>
</svg>