<?xml version="1.0" encoding="utf-8"?>
<!DOCTYPE svg PUBLIC "-//W3C//DTD SVG 1.1//EN" "http://www.w3.org/Graphics/SVG/1.1/DTD/svg11.dtd">
<svg version="1.1" id="QRCode_Layer" xmlns:ev="http://www.w3.org/2001/xml-events"
  xmlns="http://www.w3.org/2000/svg" xmlns:xlink="http://www.w3.org/1999/xlink" x="0px" y="0px" width="112.59px" height="113.87px"
  viewBox="0 0 805 805" enable-background="new 0 0 805 805" xml:space="preserve">
<path fill="#FFFFFF" d="M0,0v805h805V0H0z"/><rect x="115" y="115" fill="#000000" width="161" height="23"/>
<rect x="299" y="115" fill="#000000" width="23" height="23"/>
<rect x="414" y="115" fill="#000000" width="92" height="23"/>
<rect x="529" y="115" fill="#000000" width="161" height="23"/>
<rect x="115" y="138" fill="#000000" width="23" height="23"/>
<rect x="253" y="138" fill="#000000" width="23" height="23"/>
<rect x="299" y="138" fill="#000000" width="23" height="23"/>
<rect x="368" y="138" fill="#000000" width="46" height="23"/>
<rect x="529" y="138" fill="#000000" width="23" height="23"/>
<rect x="667" y="138" fill="#000000" width="23" height="23"/>
<rect x="115" y="161" fill="#000000" width="23" height="23"/>
<rect x="161" y="161" fill="#000000" width="69" height="23"/>
<rect x="253" y="161" fill="#000000" width="23" height="23"/>
<rect x="299" y="161" fill="#000000" width="46" height="23"/>
<rect x="391" y="161" fill="#000000" width="23" height="23"/>
<rect x="437" y="161" fill="#000000" width="23" height="23"/>
<rect x="483" y="161" fill="#000000" width="23" height="23"/>
<rect x="529" y="161" fill="#000000" width="23" height="23"/>
<rect x="575" y="161" fill="#000000" width="69" height="23"/>
<rect x="667" y="161" fill="#000000" width="23" height="23"/>
<rect x="115" y="184" fill="#000000" width="23" height="23"/>
<rect x="161" y="184" fill="#000000" width="69" height="23"/>
<rect x="253" y="184" fill="#000000" width="23" height="23"/>
<rect x="299" y="184" fill="#000000" width="69" height="23"/>
<rect x="391" y="184" fill="#000000" width="46" height="23"/>
<rect x="460" y="184" fill="#000000" width="23" height="23"/>
<rect x="529" y="184" fill="#000000" width="23" height="23"/>
<rect x="575" y="184" fill="#000000" width="69" height="23"/>
<rect x="667" y="184" fill="#000000" width="23" height="23"/>
<rect x="115" y="207" fill="#000000" width="23" height="23"/>
<rect x="161" y="207" fill="#000000" width="69" height="23"/>
<rect x="253" y="207" fill="#000000" width="23" height="23"/>
<rect x="322" y="207" fill="#000000" width="46" height="23"/>
<rect x="391" y="207" fill="#000000" width="23" height="23"/>
<rect x="437" y="207" fill="#000000" width="69" height="23"/>
<rect x="529" y="207" fill="#000000" width="23" height="23"/>
<rect x="575" y="207" fill="#000000" width="69" height="23"/>
<rect x="667" y="207" fill="#000000" width="23" height="23"/>
<rect x="115" y="230" fill="#000000" width="23" height="23"/>
<rect x="253" y="230" fill="#000000" width="23" height="23"/>
<rect x="299" y="230" fill="#000000" width="69" height="23"/>
<rect x="483" y="230" fill="#000000" width="23" height="23"/>
<rect x="529" y="230" fill="#000000" width="23" height="23"/>
<rect x="667" y="230" fill="#000000" width="23" height="23"/>
<rect x="115" y="253" fill="#000000" width="161" height="23"/>
<rect x="299" y="253" fill="#000000" width="23" height="23"/>
<rect x="345" y="253" fill="#000000" width="23" height="23"/>
<rect x="391" y="253" fill="#000000" width="23" height="23"/>
<rect x="437" y="253" fill="#000000" width="23" height="23"/>
<rect x="483" y="253" fill="#000000" width="23" height="23"/>
<rect x="529" y="253" fill="#000000" width="161" height="23"/>
<rect x="345" y="276" fill="#000000" width="46" height="23"/>
<rect x="437" y="276" fill="#000000" width="23" height="23"/>
<rect x="115" y="299" fill="#000000" width="46" height="23"/>
<rect x="207" y="299" fill="#000000" width="69" height="23"/>
<rect x="345" y="299" fill="#000000" width="23" height="23"/>
<rect x="391" y="299" fill="#000000" width="46" height="23"/>
<rect x="460" y="299" fill="#000000" width="23" height="23"/>
<rect x="552" y="299" fill="#000000" width="23" height="23"/>
<rect x="598" y="299" fill="#000000" width="92" height="23"/>
<rect x="138" y="322" fill="#000000" width="69" height="23"/>
<rect x="230" y="322" fill="#000000" width="23" height="23"/>
<rect x="276" y="322" fill="#000000" width="46" height="23"/>
<rect x="414" y="322" fill="#000000" width="23" height="23"/>
<rect x="460" y="322" fill="#000000" width="46" height="23"/>
<rect x="552" y="322" fill="#000000" width="69" height="23"/>
<rect x="644" y="322" fill="#000000" width="23" height="23"/>
<rect x="115" y="345" fill="#000000" width="23" height="23"/>
<rect x="184" y="345" fill="#000000" width="23" height="23"/>
<rect x="230" y="345" fill="#000000" width="138" height="23"/>
<rect x="460" y="345" fill="#000000" width="46" height="23"/>
<rect x="529" y="345" fill="#000000" width="46" height="23"/>
<rect x="598" y="345" fill="#000000" width="46" height="23"/>
<rect x="115" y="368" fill="#000000" width="23" height="23"/>
<rect x="161" y="368" fill="#000000" width="92" height="23"/>
<rect x="276" y="368" fill="#000000" width="69" height="23"/>
<rect x="391" y="368" fill="#000000" width="23" height="23"/>
<rect x="437" y="368" fill="#000000" width="23" height="23"/>
<rect x="506" y="368" fill="#000000" width="69" height="23"/>
<rect x="621" y="368" fill="#000000" width="46" height="23"/>
<rect x="207" y="391" fill="#000000" width="23" height="23"/>
<rect x="253" y="391" fill="#000000" width="69" height="23"/>
<rect x="368" y="391" fill="#000000" width="69" height="23"/>
<rect x="460" y="391" fill="#000000" width="23" height="23"/>
<rect x="506" y="391" fill="#000000" width="69" height="23"/>
<rect x="598" y="391" fill="#000000" width="92" height="23"/>
<rect x="115" y="414" fill="#000000" width="23" height="23"/>
<rect x="184" y="414" fill="#000000" width="69" height="23"/>
<rect x="276" y="414" fill="#000000" width="23" height="23"/>
<rect x="322" y="414" fill="#000000" width="46" height="23"/>
<rect x="391" y="414" fill="#000000" width="46" height="23"/>
<rect x="460" y="414" fill="#000000" width="23" height="23"/>
<rect x="506" y="414" fill="#000000" width="23" height="23"/>
<rect x="575" y="414" fill="#000000" width="23" height="23"/>
<rect x="644" y="414" fill="#000000" width="23" height="23"/>
<rect x="161" y="437" fill="#000000" width="23" height="23"/>
<rect x="207" y="437" fill="#000000" width="23" height="23"/>
<rect x="253" y="437" fill="#000000" width="23" height="23"/>
<rect x="345" y="437" fill="#000000" width="92" height="23"/>
<rect x="460" y="437" fill="#000000" width="69" height="23"/>
<rect x="598" y="437" fill="#000000" width="46" height="23"/>
<rect x="161" y="460" fill="#000000" width="92" height="23"/>
<rect x="276" y="460" fill="#000000" width="23" height="23"/>
<rect x="322" y="460" fill="#000000" width="23" height="23"/>
<rect x="368" y="460" fill="#000000" width="46" height="23"/>
<rect x="460" y="460" fill="#000000" width="46" height="23"/>
<rect x="552" y="460" fill="#000000" width="23" height="23"/>
<rect x="598" y="460" fill="#000000" width="69" height="23"/>
<rect x="115" y="483" fill="#000000" width="46" height="23"/>
<rect x="184" y="483" fill="#000000" width="23" height="23"/>
<rect x="253" y="483" fill="#000000" width="69" height="23"/>
<rect x="391" y="483" fill="#000000" width="23" height="23"/>
<rect x="437" y="483" fill="#000000" width="23" height="23"/>
<rect x="483" y="483" fill="#000000" width="161" height="23"/>
<rect x="299" y="506" fill="#000000" width="92" height="23"/>
<rect x="437" y="506" fill="#000000" width="69" height="23"/>
<rect x="575" y="506" fill="#000000" width="23" height="23"/>
<rect x="621" y="506" fill="#000000" width="23" height="23"/>
<rect x="115" y="529" fill="#000000" width="161" height="23"/>
<rect x="322" y="529" fill="#000000" width="23" height="23"/>
<rect x="368" y="529" fill="#000000" width="23" height="23"/>
<rect x="437" y="529" fill="#000000" width="23" height="23"/>
<rect x="483" y="529" fill="#000000" width="23" height="23"/>
<rect x="529" y="529" fill="#000000" width="23" height="23"/>
<rect x="575" y="529" fill="#000000" width="46" height="23"/>
<rect x="115" y="552" fill="#000000" width="23" height="23"/>
<rect x="253" y="552" fill="#000000" width="23" height="23"/>
<rect x="299" y="552" fill="#000000" width="23" height="23"/>
<rect x="345" y="552" fill="#000000" width="69" height="23"/>
<rect x="437" y="552" fill="#000000" width="23" height="23"/>
<rect x="483" y="552" fill="#000000" width="23" height="23"/>
<rect x="575" y="552" fill="#000000" width="115" height="23"/>
<rect x="115" y="575" fill="#000000" width="23" height="23"/>
<rect x="161" y="575" fill="#000000" width="69" height="23"/>
<rect x="253" y="575" fill="#000000" width="23" height="23"/>
<rect x="299" y="575" fill="#000000" width="69" height="23"/>
<rect x="391" y="575" fill="#000000" width="46" height="23"/>
<rect x="483" y="575" fill="#000000" width="115" height="23"/>
<rect x="621" y="575" fill="#000000" width="23" height="23"/>
<rect x="115" y="598" fill="#000000" width="23" height="23"/>
<rect x="161" y="598" fill="#000000" width="69" height="23"/>
<rect x="253" y="598" fill="#000000" width="23" height="23"/>
<rect x="368" y="598" fill="#000000" width="23" height="23"/>
<rect x="414" y="598" fill="#000000" width="161" height="23"/>
<rect x="598" y="598" fill="#000000" width="92" height="23"/>
<rect x="115" y="621" fill="#000000" width="23" height="23"/>
<rect x="161" y="621" fill="#000000" width="69" height="23"/>
<rect x="253" y="621" fill="#000000" width="23" height="23"/>
<rect x="368" y="621" fill="#000000" width="69" height="23"/>
<rect x="483" y="621" fill="#000000" width="23" height="23"/>
<rect x="529" y="621" fill="#000000" width="46" height="23"/>
<rect x="644" y="621" fill="#000000" width="23" height="23"/>
<rect x="115" y="644" fill="#000000" width="23" height="23"/>
<rect x="253" y="644" fill="#000000" width="23" height="23"/>
<rect x="299" y="644" fill="#000000" width="23" height="23"/>
<rect x="391" y="644" fill="#000000" width="23" height="23"/>
<rect x="437" y="644" fill="#000000" width="23" height="23"/>
<rect x="506" y="644" fill="#000000" width="23" height="23"/>
<rect x="552" y="644" fill="#000000" width="115" height="23"/>
<rect x="115" y="667" fill="#000000" width="161" height="23"/>
<rect x="299" y="667" fill="#000000" width="115" height="23"/>
<rect x="460" y="667" fill="#000000" width="23" height="23"/>
<rect x="621" y="667" fill="#000000" width="69" height="23"/>
</svg>
